<?xml version="1.0" encoding="UTF-8" ?>
<!DOCTYPE svg PUBLIC "-//W3C//DTD SVG 1.1//EN" "http://www.w3.org/Graphics/SVG/1.1/DTD/svg11.dtd">
<svg width="258pt" height="194pt" viewBox="0 0 258 194" version="1.1" xmlns="http://www.w3.org/2000/svg">
<g id="#3d3e3efe">
<path fill="#3d3e3e" opacity="1.00" d=" M 1.05 1.03 C 86.36 0.98 171.66 0.97 256.97 1.04 C 256.97 37.07 257.12 73.11 256.90 109.14 C 249.67 101.57 241.16 95.10 231.14 91.74 C 230.75 70.18 231.17 48.60 230.96 27.04 C 162.99 26.99 95.01 26.93 27.03 27.07 C 26.98 73.70 26.97 120.33 27.04 166.96 C 69.31 167.13 111.58 166.82 153.85 167.10 C 157.62 176.89 163.73 185.53 171.18 192.90 C 114.47 193.10 57.75 192.99 1.04 192.96 C 0.98 128.99 0.96 65.01 1.05 1.03 Z" />
<path fill="#3d3e3e" opacity="1.00" d=" M 76.34 44.46 C 84.66 43.78 93.67 48.04 96.65 56.29 C 101.09 66.35 94.87 79.64 84.01 82.01 C 69.13 87.45 53.58 68.99 61.32 55.29 C 64.32 49.62 69.90 45.30 76.34 44.46 Z" />
<path fill="#3d3e3e" opacity="1.00" d=" M 154.98 66.10 L 155.89 65.96 C 162.72 76.92 171.54 86.60 177.91 97.83 C 160.99 107.79 150.95 127.56 150.88 146.96 C 115.57 147.03 80.25 147.03 44.94 146.96 C 58.76 129.57 74.18 113.47 88.26 96.26 C 89.64 95.18 90.72 92.51 92.78 93.17 C 98.89 98.58 103.16 106.27 109.84 110.83 C 124.81 95.88 139.45 80.36 154.98 66.10 Z" />
<path fill="#3d3e3e" opacity="1.00" d=" M 202.34 101.48 C 225.87 96.45 250.62 112.85 256.03 135.97 C 262.60 160.00 245.97 186.50 222.03 192.03 C 198.00 198.60 171.50 181.97 165.97 158.03 C 159.11 133.16 177.26 105.82 202.34 101.48 M 203.04 119.04 C 203.01 125.68 202.98 132.32 202.96 138.96 C 196.32 138.99 189.68 139.01 183.04 139.03 C 182.92 144.34 182.92 149.65 183.04 154.96 C 189.68 154.99 196.32 155.01 202.96 155.04 C 202.99 161.68 203.01 168.32 203.03 174.96 C 208.34 175.07 213.65 175.07 218.96 174.96 C 218.98 168.32 219.01 161.68 219.04 155.04 C 225.68 155.01 232.32 154.99 238.96 154.97 C 239.07 149.66 239.07 144.35 238.96 139.04 C 232.32 139.01 225.68 138.99 219.04 138.96 C 219.01 132.32 218.99 125.68 218.97 119.04 C 213.66 118.92 208.35 118.92 203.04 119.04 Z" />
</g>
</svg>
