<?xml version="1.0" encoding="UTF-8" ?>
<!DOCTYPE svg PUBLIC "-//W3C//DTD SVG 1.1//EN" "http://www.w3.org/Graphics/SVG/1.1/DTD/svg11.dtd">
<svg width="208pt" height="143pt" viewBox="0 0 208 143" version="1.1" xmlns="http://www.w3.org/2000/svg">
<g id="#202020ff">
<path fill="#202020" opacity="1.00" d=" M 102.28 0.00 L 105.71 0.00 C 107.55 4.26 109.29 8.56 111.21 12.78 C 121.29 34.86 130.72 57.24 140.79 79.32 C 141.61 81.16 142.48 83.00 142.96 84.97 C 141.71 86.72 139.98 88.03 138.28 89.32 C 127.44 97.05 117.15 105.52 106.53 113.54 C 105.37 114.35 104.18 115.15 102.84 115.63 C 100.69 115.42 98.95 113.96 97.25 112.78 C 87.76 105.25 78.39 97.58 68.63 90.40 C 67.25 89.31 65.88 88.18 64.77 86.80 C 65.01 83.63 66.58 80.79 67.84 77.94 C 74.44 63.43 80.78 48.80 87.21 34.21 C 92.15 22.77 97.54 11.53 102.28 0.00 Z" />
<path fill="#202020" opacity="1.00" d=" M 0.00 52.17 C 3.05 54.01 6.10 55.87 8.86 58.13 C 19.02 66.33 29.34 74.33 39.59 82.41 C 42.73 84.94 46.39 86.98 48.86 90.24 C 48.29 94.27 46.15 97.83 44.58 101.51 C 41.33 108.93 37.74 116.19 34.79 123.73 C 33.69 126.51 32.28 129.22 30.14 131.36 C 27.24 126.33 25.74 120.67 23.55 115.32 C 16.98 98.84 10.67 82.27 4.31 65.71 C 3.07 62.45 1.49 59.34 0.00 56.19 L 0.00 52.17 Z" />
<path fill="#202020" opacity="1.00" d=" M 200.51 56.49 C 202.82 54.73 205.43 53.45 208.00 52.12 L 208.00 56.20 C 206.27 59.80 204.51 63.39 203.14 67.15 C 197.04 83.26 190.82 99.33 184.46 115.34 C 182.28 120.69 180.80 126.35 177.87 131.36 C 174.22 127.72 173.03 122.55 170.91 118.01 C 167.57 110.68 164.38 103.28 160.99 95.98 C 160.07 93.83 159.00 91.63 158.99 89.24 C 160.99 86.18 164.16 84.20 167.01 82.02 C 178.24 73.59 189.45 65.13 200.51 56.49 Z" />
<path fill="#202020" opacity="1.00" d=" M 53.75 109.79 C 55.51 105.84 56.80 101.50 59.80 98.26 C 68.45 104.88 76.84 111.86 85.56 118.40 C 87.32 119.79 89.16 121.20 90.30 123.16 C 90.61 125.65 88.13 127.11 86.58 128.62 C 80.46 133.43 73.98 137.79 68.18 143.00 L 38.80 143.00 C 43.96 132.01 48.87 120.91 53.75 109.79 Z" />
<path fill="#202020" opacity="1.00" d=" M 139.84 102.83 C 142.33 100.90 144.88 98.93 147.91 97.93 C 151.00 100.97 152.09 105.33 153.89 109.15 C 159.00 120.43 163.79 131.86 169.19 143.00 L 135.58 143.00 C 129.94 138.08 123.96 133.59 118.08 128.98 C 116.39 127.34 113.79 125.86 113.79 123.22 C 116.64 120.21 120.19 118.01 123.41 115.43 C 128.83 111.16 134.43 107.12 139.84 102.83 Z" />
<path fill="#202020" opacity="1.00" d=" M 91.27 143.00 C 93.41 138.27 97.45 133.91 102.87 133.40 C 107.63 134.62 110.93 138.65 112.81 143.00 L 91.27 143.00 Z" />
</g>
</svg>
