<?xml version="1.0" encoding="UTF-8" ?>
<!DOCTYPE svg PUBLIC "-//W3C//DTD SVG 1.1//EN" "http://www.w3.org/Graphics/SVG/1.1/DTD/svg11.dtd">
<svg width="101pt" height="118pt" viewBox="0 0 101 118" version="1.1" xmlns="http://www.w3.org/2000/svg">
<g id="#3d3d3dff">
<path fill="#3d3d3d" opacity="1.00" d=" M 0.00 0.00 L 99.99 0.00 C 99.95 26.33 100.01 52.67 99.96 79.00 C 100.01 91.68 100.78 104.37 100.17 117.05 C 93.47 112.45 87.40 107.01 81.00 102.01 C 77.13 99.02 73.47 94.57 68.09 94.93 C 45.39 95.00 22.70 94.99 0.00 94.96 L 0.00 0.00 M 27.34 26.32 C 20.38 28.02 14.40 33.29 12.05 40.09 C 8.45 49.17 12.28 60.31 20.40 65.61 C 26.05 69.32 33.57 70.64 39.90 67.89 C 43.54 66.37 46.84 63.57 50.97 63.63 C 56.08 63.16 59.94 67.06 64.54 68.48 C 73.57 71.23 84.07 66.86 88.79 58.74 C 92.57 52.62 93.27 44.52 89.87 38.07 C 87.39 33.43 83.60 29.23 78.60 27.32 C 74.93 25.79 70.92 25.50 67.00 25.54 C 56.67 25.61 46.34 25.66 36.00 25.56 C 33.10 25.56 30.17 25.61 27.34 26.32 Z" />
<path fill="#3d3d3d" opacity="1.00" d=" M 29.00 34.22 C 31.30 34.44 34.16 33.47 36.12 34.83 C 36.65 37.62 36.53 40.47 36.72 43.29 C 39.69 43.42 42.66 43.47 45.63 43.53 C 45.79 46.02 45.82 48.50 45.73 50.99 C 42.64 51.31 39.55 51.45 36.45 51.47 C 36.44 54.61 36.33 57.74 35.98 60.86 C 33.51 61.18 31.00 61.15 28.68 60.17 C 28.64 57.27 28.61 54.36 28.53 51.46 C 25.40 51.48 22.27 51.38 19.16 50.98 C 18.92 48.67 18.91 46.34 19.13 44.02 C 22.25 43.66 25.40 43.54 28.55 43.54 C 28.52 40.43 28.62 37.31 29.00 34.22 Z" />
<path fill="#3d3d3d" opacity="1.00" d=" M 73.42 37.33 C 76.62 35.37 81.42 38.14 80.81 42.00 C 81.46 46.11 75.80 48.71 72.74 46.33 C 69.50 44.33 69.81 38.76 73.42 37.33 Z" />
<path fill="#3d3d3d" opacity="1.00" d=" M 62.40 48.24 C 65.63 46.22 70.60 48.98 69.87 52.95 C 70.64 58.13 62.50 59.78 60.35 55.58 C 58.81 53.10 59.75 49.54 62.40 48.24 Z" />
</g>
<g id="#ffffffff">
<path fill="#ffffff" opacity="1.00" d=" M 27.34 26.32 C 30.17 25.61 33.10 25.56 36.00 25.56 C 46.34 25.66 56.67 25.61 67.00 25.54 C 70.92 25.50 74.93 25.79 78.60 27.32 C 83.60 29.23 87.39 33.43 89.87 38.07 C 93.27 44.52 92.57 52.62 88.79 58.74 C 84.07 66.86 73.57 71.23 64.54 68.48 C 59.94 67.06 56.08 63.16 50.97 63.63 C 46.84 63.57 43.54 66.37 39.90 67.89 C 33.57 70.64 26.05 69.32 20.40 65.61 C 12.28 60.31 8.45 49.17 12.05 40.09 C 14.40 33.29 20.38 28.02 27.34 26.32 M 29.00 34.22 C 28.62 37.31 28.52 40.43 28.55 43.54 C 25.40 43.54 22.25 43.66 19.13 44.02 C 18.91 46.34 18.92 48.67 19.16 50.98 C 22.27 51.38 25.40 51.48 28.53 51.46 C 28.61 54.36 28.64 57.27 28.68 60.17 C 31.00 61.15 33.51 61.18 35.98 60.86 C 36.33 57.74 36.44 54.61 36.45 51.47 C 39.55 51.45 42.64 51.31 45.73 50.99 C 45.82 48.50 45.79 46.02 45.63 43.53 C 42.66 43.47 39.69 43.42 36.72 43.29 C 36.53 40.47 36.65 37.62 36.12 34.83 C 34.16 33.47 31.30 34.44 29.00 34.22 M 73.42 37.33 C 69.81 38.76 69.50 44.33 72.74 46.33 C 75.80 48.71 81.46 46.11 80.81 42.00 C 81.42 38.14 76.62 35.37 73.42 37.33 M 62.40 48.24 C 59.75 49.54 58.81 53.10 60.35 55.58 C 62.50 59.78 70.64 58.13 69.87 52.95 C 70.60 48.98 65.63 46.22 62.40 48.24 Z" />
</g>
</svg>
