<?xml version="1.0" encoding="UTF-8" ?>
<!DOCTYPE svg PUBLIC "-//W3C//DTD SVG 1.1//EN" "http://www.w3.org/Graphics/SVG/1.1/DTD/svg11.dtd">
<svg width="103pt" height="118pt" viewBox="0 0 103 118" version="1.1" xmlns="http://www.w3.org/2000/svg">
<g id="#3d3d3dff">
<path fill="#3d3d3d" opacity="1.00" d=" M 0.00 0.00 L 103.00 0.00 L 103.00 118.00 L 102.27 118.00 C 95.53 111.57 87.89 106.21 80.84 100.15 C 77.78 97.57 74.37 94.76 70.10 94.98 C 46.74 94.98 23.37 95.02 0.00 95.00 L 0.00 0.00 M 27.34 26.32 C 20.11 28.06 13.98 33.68 11.80 40.81 C 8.54 49.98 12.70 61.01 20.99 65.99 C 26.34 69.28 33.23 70.53 39.17 68.14 C 43.13 66.70 46.60 63.67 50.98 63.63 C 56.62 63.29 60.83 67.86 66.16 68.89 C 77.44 71.36 89.49 63.08 91.56 51.78 C 94.59 39.57 84.50 26.38 72.01 25.71 C 62.69 25.27 53.34 25.74 44.00 25.58 C 38.45 25.71 32.80 25.06 27.34 26.32 Z" />
<path fill="#3d3d3d" opacity="1.00" d=" M 28.97 34.23 C 31.39 34.07 33.81 34.20 36.21 34.58 C 36.27 37.49 36.51 40.40 36.72 43.30 C 39.68 43.44 42.64 43.57 45.61 43.65 C 45.74 46.10 45.78 48.55 45.73 51.00 C 42.67 51.20 39.63 51.51 36.56 51.57 C 36.46 54.69 36.21 57.80 35.96 60.91 C 33.49 61.25 31.04 61.10 28.69 60.24 C 28.63 57.35 28.53 54.47 28.45 51.59 C 25.34 51.49 22.24 51.25 19.15 50.99 C 18.93 48.68 18.91 46.35 19.10 44.03 C 22.20 43.78 25.31 43.53 28.42 43.42 C 28.50 40.35 28.75 37.29 28.97 34.23 Z" />
<path fill="#3d3d3d" opacity="1.00" d=" M 73.46 37.32 C 76.67 35.36 81.33 38.20 80.80 42.00 C 81.35 46.07 75.85 48.79 72.76 46.36 C 69.46 44.36 69.76 38.71 73.46 37.32 Z" />
<path fill="#3d3d3d" opacity="1.00" d=" M 62.42 48.22 C 65.68 46.21 70.55 48.99 69.86 52.95 C 70.65 58.16 62.47 59.74 60.33 55.55 C 58.80 53.07 59.77 49.49 62.42 48.22 Z" />
</g>
<g id="#ffffffff">
<path fill="#ffffff" opacity="1.00" d=" M 27.34 26.32 C 32.80 25.06 38.45 25.71 44.00 25.58 C 53.34 25.74 62.69 25.27 72.01 25.71 C 84.50 26.38 94.59 39.57 91.56 51.78 C 89.49 63.08 77.44 71.36 66.16 68.89 C 60.83 67.86 56.62 63.29 50.98 63.63 C 46.60 63.67 43.13 66.70 39.17 68.14 C 33.23 70.53 26.34 69.28 20.99 65.99 C 12.70 61.01 8.54 49.98 11.80 40.81 C 13.98 33.68 20.11 28.06 27.34 26.32 M 28.97 34.23 C 28.75 37.29 28.50 40.35 28.42 43.42 C 25.31 43.53 22.20 43.78 19.10 44.03 C 18.91 46.35 18.93 48.68 19.15 50.99 C 22.24 51.25 25.34 51.49 28.45 51.59 C 28.53 54.47 28.63 57.35 28.69 60.24 C 31.04 61.10 33.49 61.25 35.96 60.91 C 36.21 57.80 36.46 54.69 36.56 51.57 C 39.63 51.51 42.67 51.20 45.73 51.00 C 45.78 48.55 45.74 46.10 45.61 43.65 C 42.64 43.57 39.68 43.44 36.72 43.30 C 36.51 40.40 36.27 37.49 36.21 34.58 C 33.81 34.20 31.39 34.07 28.97 34.23 M 73.46 37.32 C 69.76 38.71 69.46 44.36 72.76 46.36 C 75.85 48.79 81.35 46.07 80.80 42.00 C 81.33 38.20 76.67 35.36 73.46 37.32 M 62.42 48.22 C 59.77 49.49 58.80 53.07 60.33 55.55 C 62.47 59.74 70.65 58.16 69.86 52.95 C 70.55 48.99 65.68 46.21 62.42 48.22 Z" />
</g>
</svg>
