<?xml version="1.0" encoding="UTF-8" ?>
<!DOCTYPE svg PUBLIC "-//W3C//DTD SVG 1.1//EN" "http://www.w3.org/Graphics/SVG/1.1/DTD/svg11.dtd">
<svg width="190pt" height="380pt" viewBox="0 0 190 380" version="1.1" xmlns="http://www.w3.org/2000/svg">
<g id="#bbbbbbff">
<path fill="#bbbbbb" opacity="1.00" d=" M 0.00 0.00 L 37.23 0.00 C 38.55 9.01 40.20 18.00 40.81 27.10 C 41.22 31.81 42.54 36.38 42.82 41.10 C 42.97 43.64 43.08 46.21 43.84 48.66 L 43.33 48.67 C 41.35 48.66 39.38 48.66 37.41 48.72 C 29.95 48.62 22.49 48.63 15.04 48.67 C 15.51 47.87 15.99 47.08 16.47 46.29 C 15.10 44.38 12.90 43.35 11.05 41.99 C 7.65 39.77 4.76 36.79 1.04 35.08 C 0.62 40.04 1.00 45.02 0.89 49.99 C 0.95 56.14 0.49 62.32 1.41 68.43 C 1.06 68.91 0.35 69.89 0.00 70.37 L 0.00 0.00 Z" />
</g>
<g id="#ccccccff">
<path fill="#cccccc" opacity="1.00" d=" M 37.23 0.00 L 46.54 0.00 C 50.48 1.67 54.81 0.80 58.95 0.97 C 65.88 1.20 72.83 0.65 79.74 1.26 C 80.54 6.34 79.67 11.48 79.78 16.56 C 80.07 16.85 80.66 17.42 80.95 17.70 C 74.60 20.50 68.19 23.16 61.81 25.90 C 61.56 26.12 61.08 26.55 60.83 26.77 C 57.75 34.04 54.93 41.42 51.91 48.71 C 49.22 48.62 46.53 48.67 43.84 48.66 C 43.08 46.21 42.97 43.64 42.82 41.10 C 42.54 36.38 41.22 31.81 40.81 27.10 C 40.20 18.00 38.55 9.01 37.23 0.00 Z" />
</g>
<g id="#d1d1d1ff">
<path fill="#d1d1d1" opacity="1.00" d=" M 46.54 0.00 L 99.43 0.00 C 101.65 1.70 103.98 3.25 106.44 4.58 C 112.20 7.75 117.56 11.59 123.36 14.70 C 124.23 15.26 125.28 15.33 126.29 15.41 C 126.60 16.88 125.20 18.40 126.21 19.75 C 127.36 21.65 127.94 23.79 127.84 26.02 C 116.67 21.29 105.45 16.55 94.14 12.21 C 89.69 13.90 85.38 15.94 80.95 17.70 C 80.66 17.42 80.07 16.85 79.78 16.56 C 79.67 11.48 80.54 6.34 79.74 1.26 C 72.83 0.65 65.88 1.20 58.95 0.97 C 54.81 0.80 50.48 1.67 46.54 0.00 Z" />
</g>
<g id="#c2c2c2ff">
<path fill="#c2c2c2" opacity="1.00" d=" M 99.43 0.00 L 122.68 0.00 C 123.94 5.12 125.03 10.29 126.29 15.41 C 125.28 15.33 124.23 15.26 123.36 14.70 C 117.56 11.59 112.20 7.75 106.44 4.58 C 103.98 3.25 101.65 1.70 99.43 0.00 Z" />
<path fill="#c2c2c2" opacity="1.00" d=" M 177.45 285.36 C 181.75 279.13 185.27 272.38 190.00 266.45 L 190.00 296.10 C 185.08 296.94 180.29 298.91 175.24 298.67 C 174.18 294.16 174.62 289.15 177.45 285.36 Z" />
</g>
<g id="#e5e5e5ff">
<path fill="#e5e5e5" opacity="1.00" d=" M 122.68 0.00 L 185.02 0.00 C 185.20 6.10 183.03 11.81 181.51 17.60 C 179.77 27.42 177.14 37.06 174.59 46.69 C 167.40 47.33 160.16 46.87 152.95 47.09 C 147.41 47.07 141.84 47.52 136.35 46.63 C 133.48 39.77 130.49 32.96 127.84 26.02 C 127.94 23.79 127.36 21.65 126.21 19.75 C 125.20 18.40 126.60 16.88 126.29 15.41 C 125.03 10.29 123.94 5.12 122.68 0.00 Z" />
</g>
<g id="#eeeeeeff">
<path fill="#eeeeee" opacity="1.00" d=" M 185.02 0.00 L 190.00 0.00 L 190.00 94.41 C 185.15 97.98 180.22 101.62 176.26 106.18 C 174.54 111.14 175.09 116.60 175.37 121.76 C 180.27 122.46 185.08 120.51 190.00 121.00 L 190.00 135.39 C 184.76 133.86 179.80 131.12 174.24 131.01 C 174.22 103.56 174.31 76.12 174.16 48.68 C 167.43 48.54 160.68 48.65 153.94 48.62 C 148.38 48.61 142.81 48.58 137.25 48.65 C 136.94 47.98 136.64 47.30 136.35 46.63 C 141.84 47.52 147.41 47.07 152.95 47.09 C 160.16 46.87 167.40 47.33 174.59 46.69 C 177.14 37.06 179.77 27.42 181.51 17.60 C 183.03 11.81 185.20 6.10 185.02 0.00 Z" />
</g>
<g id="#3d3d3dff">
<path fill="#3d3d3d" opacity="1.00" d=" M 80.95 17.70 C 85.38 15.94 89.69 13.90 94.14 12.21 C 105.45 16.55 116.67 21.29 127.84 26.02 C 130.49 32.96 133.48 39.77 136.35 46.63 C 136.64 47.30 136.94 47.98 137.25 48.65 C 138.55 52.19 140.19 55.59 141.51 59.12 C 137.39 70.00 132.81 80.73 128.52 91.56 C 128.07 93.21 126.19 93.47 124.88 94.14 C 114.87 98.33 104.93 102.73 94.88 106.82 C 90.77 105.55 86.91 103.56 82.86 102.10 C 77.41 99.66 71.81 97.55 66.30 95.26 C 64.78 94.58 63.24 93.92 61.72 93.26 C 58.95 88.02 57.10 82.33 54.61 76.94 C 52.32 71.24 49.80 65.63 47.53 59.91 C 48.80 56.11 50.49 52.46 51.91 48.71 C 54.93 41.42 57.75 34.04 60.83 26.77 C 61.08 26.55 61.56 26.12 61.81 25.90 C 68.19 23.16 74.60 20.50 80.95 17.70 Z" />
</g>
<g id="#b1b1b1ff">
<path fill="#b1b1b1" opacity="1.00" d=" M 1.04 35.08 C 4.76 36.79 7.65 39.77 11.05 41.99 C 12.90 43.35 15.10 44.38 16.47 46.29 C 15.99 47.08 15.51 47.87 15.04 48.67 C 14.94 49.17 14.75 50.16 14.65 50.66 C 10.09 56.47 5.93 62.59 1.41 68.43 C 0.49 62.32 0.95 56.14 0.89 49.99 C 1.00 45.02 0.62 40.04 1.04 35.08 Z" />
</g>
<g id="#af382fff">
<path fill="#af382f" opacity="1.00" d=" M 15.04 48.67 C 22.49 48.63 29.95 48.62 37.41 48.72 C 30.62 53.58 22.41 55.88 14.82 59.19 C 14.78 56.34 14.81 53.50 14.65 50.66 C 14.75 50.16 14.94 49.17 15.04 48.67 Z" />
</g>
<g id="#963026ff">
<path fill="#963026" opacity="1.00" d=" M 37.41 48.72 C 39.38 48.66 41.35 48.66 43.33 48.67 C 36.08 61.93 28.56 75.04 21.21 88.24 C 19.11 91.73 17.45 95.52 14.87 98.70 C 14.76 85.53 14.77 72.36 14.82 59.19 C 22.41 55.88 30.62 53.58 37.41 48.72 Z" />
</g>
<g id="#e14b3dff">
<path fill="#e14b3d" opacity="1.00" d=" M 43.33 48.67 L 43.84 48.66 C 46.53 48.67 49.22 48.62 51.91 48.71 C 50.49 52.46 48.80 56.11 47.53 59.91 C 49.80 65.63 52.32 71.24 54.61 76.94 C 41.79 88.15 27.75 97.94 14.82 109.02 C 14.76 105.84 14.79 102.65 14.76 99.47 L 14.87 98.70 C 17.45 95.52 19.11 91.73 21.21 88.24 C 28.56 75.04 36.08 61.93 43.33 48.67 Z" />
</g>
<g id="#e34b3dff">
<path fill="#e34b3d" opacity="1.00" d=" M 137.25 48.65 C 142.81 48.58 148.38 48.61 153.94 48.62 L 154.16 49.61 C 153.45 55.71 153.80 61.86 153.74 67.99 C 153.73 99.68 154.03 131.37 153.68 163.05 C 153.67 167.38 152.60 171.76 150.28 175.44 C 149.07 176.44 147.58 177.12 146.52 178.31 C 145.82 180.29 145.83 182.71 143.97 184.07 C 140.96 186.72 137.85 189.43 134.14 191.04 C 131.85 191.40 129.50 191.69 127.18 191.53 C 124.84 188.88 121.04 188.74 118.45 186.46 C 116.20 184.52 113.17 182.97 112.14 180.02 C 111.17 176.40 107.77 174.08 107.43 170.20 C 101.48 170.96 95.53 172.11 89.74 173.72 C 81.06 176.27 71.95 177.08 63.35 179.90 C 47.14 183.12 31.03 186.86 14.82 190.08 C 14.83 189.65 14.84 188.77 14.84 188.33 C 17.54 185.94 18.18 182.20 20.54 179.56 C 22.98 176.89 24.17 173.37 26.67 170.75 C 29.38 167.89 31.15 164.35 32.88 160.85 C 34.36 157.83 36.81 155.44 38.58 152.60 C 40.73 149.09 42.97 145.64 45.36 142.29 C 49.22 137.06 52.00 131.12 55.87 125.90 C 56.63 124.71 58.25 125.32 59.34 125.56 C 64.48 127.13 68.93 130.36 74.03 132.01 C 74.47 131.96 75.35 131.84 75.78 131.79 C 76.12 128.65 75.62 125.25 77.54 122.53 C 79.34 119.74 77.36 116.10 79.45 113.39 C 81.25 110.98 80.29 107.20 83.09 105.51 C 83.24 104.37 83.10 103.22 82.86 102.10 C 86.91 103.56 90.77 105.55 94.88 106.82 C 104.93 102.73 114.87 98.33 124.88 94.14 C 126.19 93.47 128.07 93.21 128.52 91.56 C 132.81 80.73 137.39 70.00 141.51 59.12 C 140.19 55.59 138.55 52.19 137.25 48.65 Z" />
</g>
<g id="#cd4434ff">
<path fill="#cd4434" opacity="1.00" d=" M 153.94 48.62 C 160.68 48.65 167.43 48.54 174.16 48.68 C 174.31 76.12 174.22 103.56 174.24 131.01 C 174.13 209.21 174.38 287.41 174.18 365.61 L 173.60 366.19 C 167.32 365.96 161.02 366.19 154.74 366.06 C 154.43 351.37 154.68 336.68 154.57 321.99 C 153.47 322.73 152.47 323.60 151.59 324.59 C 142.80 334.40 134.12 344.32 125.20 354.01 C 126.28 343.72 128.04 333.50 129.41 323.25 C 131.97 307.26 133.93 291.18 136.26 275.16 C 136.55 273.62 136.41 272.05 136.41 270.50 C 136.64 270.17 137.10 269.51 137.33 269.18 C 143.28 268.72 148.90 273.19 154.71 271.76 C 155.37 263.83 154.12 255.90 154.76 247.98 C 154.82 231.64 154.79 215.30 154.87 198.97 C 154.59 186.64 154.20 174.29 154.90 161.97 C 155.24 126.98 154.88 92.00 154.98 57.01 C 155.05 54.52 154.76 52.03 154.16 49.61 L 153.94 48.62 Z" />
</g>
<g id="#df493aff">
<path fill="#df493a" opacity="1.00" d=" M 154.16 49.61 C 154.76 52.03 155.05 54.52 154.98 57.01 C 154.88 92.00 155.24 126.98 154.90 161.97 C 154.20 174.29 154.59 186.64 154.87 198.97 C 154.79 215.30 154.82 231.64 154.76 247.98 C 154.12 255.90 155.37 263.83 154.71 271.76 C 148.90 273.19 143.28 268.72 137.33 269.18 C 137.10 269.51 136.64 270.17 136.41 270.50 C 127.85 283.98 118.71 297.09 110.32 310.68 C 105.05 318.16 100.58 326.19 95.09 333.51 C 82.80 325.45 69.80 318.50 57.45 310.53 C 49.86 304.92 41.15 301.04 33.21 295.97 C 28.19 268.87 22.48 241.91 17.39 214.82 C 16.89 211.34 16.10 207.90 14.84 204.61 C 14.75 200.15 14.76 195.69 14.81 191.23 C 32.93 192.86 51.11 193.97 69.27 195.09 C 77.87 196.93 86.76 196.30 95.45 197.41 C 98.36 197.58 101.44 198.15 104.18 196.89 C 102.44 195.79 100.37 195.75 98.43 195.32 C 97.45 192.21 94.43 190.33 93.71 187.10 C 92.24 183.77 91.21 180.30 90.07 176.86 C 91.26 175.90 92.57 175.12 93.84 174.30 C 92.48 174.07 91.11 173.88 89.74 173.72 C 95.53 172.11 101.48 170.96 107.43 170.20 C 107.77 174.08 111.17 176.40 112.14 180.02 C 113.17 182.97 116.20 184.52 118.45 186.46 C 121.04 188.74 124.84 188.88 127.18 191.53 C 129.50 191.69 131.85 191.40 134.14 191.04 C 137.85 189.43 140.96 186.72 143.97 184.07 C 145.83 182.71 145.82 180.29 146.52 178.31 C 147.58 177.12 149.07 176.44 150.28 175.44 C 152.60 171.76 153.67 167.38 153.68 163.05 C 154.03 131.37 153.73 99.68 153.74 67.99 C 153.80 61.86 153.45 55.71 154.16 49.61 Z" />
</g>
<g id="#777777ff">
<path fill="#777777" opacity="1.00" d=" M 1.41 68.43 C 5.93 62.59 10.09 56.47 14.65 50.66 C 14.81 53.50 14.78 56.34 14.82 59.19 C 14.77 72.36 14.76 85.53 14.87 98.70 L 14.76 99.47 C 14.16 96.78 13.97 94.02 13.76 91.28 C 8.98 94.26 4.69 97.97 0.00 101.10 L 0.00 70.37 C 0.35 69.89 1.06 68.91 1.41 68.43 Z" />
</g>
<g id="#cd4435ff">
<path fill="#cd4435" opacity="1.00" d=" M 54.61 76.94 C 57.10 82.33 58.95 88.02 61.72 93.26 C 63.24 93.92 64.78 94.58 66.30 95.26 C 64.95 95.26 63.59 95.23 62.26 95.43 C 60.06 104.70 57.88 114.13 57.65 123.71 C 53.60 124.16 49.64 122.99 45.66 122.46 C 35.32 121.53 25.07 119.78 14.83 118.09 C 14.76 115.06 14.76 112.04 14.82 109.02 C 27.75 97.94 41.79 88.15 54.61 76.94 Z" />
</g>
<g id="#7d7d7dff">
<path fill="#7d7d7d" opacity="1.00" d=" M 0.00 101.10 C 4.69 97.97 8.98 94.26 13.76 91.28 C 13.97 94.02 14.16 96.78 14.76 99.47 C 14.79 102.65 14.76 105.84 14.82 109.02 C 14.76 112.04 14.76 115.06 14.83 118.09 C 14.72 131.77 14.84 145.45 14.77 159.13 C 9.85 158.35 4.99 157.12 0.00 156.85 L 0.00 101.10 Z" />
</g>
<g id="#da4839ff">
<path fill="#da4839" opacity="1.00" d=" M 62.26 95.43 C 63.59 95.23 64.95 95.26 66.30 95.26 C 71.81 97.55 77.41 99.66 82.86 102.10 C 83.10 103.22 83.24 104.37 83.09 105.51 C 80.29 107.20 81.25 110.98 79.45 113.39 C 77.36 116.10 79.34 119.74 77.54 122.53 C 75.62 125.25 76.12 128.65 75.78 131.79 C 75.35 131.84 74.47 131.96 74.03 132.01 C 68.93 130.36 64.48 127.13 59.34 125.56 C 58.25 125.32 56.63 124.71 55.87 125.90 C 52.00 131.12 49.22 137.06 45.36 142.29 C 42.97 145.64 40.73 149.09 38.58 152.60 C 36.81 155.44 34.36 157.83 32.88 160.85 C 31.15 164.35 29.38 167.89 26.67 170.75 C 24.17 173.37 22.98 176.89 20.54 179.56 C 18.18 182.20 17.54 185.94 14.84 188.33 C 14.69 178.60 14.82 168.86 14.77 159.13 C 14.84 145.45 14.72 131.77 14.83 118.09 C 25.07 119.78 35.32 121.53 45.66 122.46 C 49.64 122.99 53.60 124.16 57.65 123.71 C 57.88 114.13 60.06 104.70 62.26 95.43 Z" />
</g>
<g id="#e7e7e7ff">
<path fill="#e7e7e7" opacity="1.00" d=" M 176.26 106.18 C 180.22 101.62 185.15 97.98 190.00 94.41 L 190.00 121.00 C 185.08 120.51 180.27 122.46 175.37 121.76 C 175.09 116.60 174.54 111.14 176.26 106.18 Z" />
</g>
<g id="#d1d2d2ff">
<path fill="#d1d2d2" opacity="1.00" d=" M 174.24 131.01 C 179.80 131.12 184.76 133.86 190.00 135.39 L 190.00 266.45 C 185.27 272.38 181.75 279.13 177.45 285.36 C 174.62 289.15 174.18 294.16 175.24 298.67 C 180.29 298.91 185.08 296.94 190.00 296.10 L 190.00 364.09 C 184.83 367.71 178.26 369.11 173.64 373.51 C 172.43 371.91 172.70 369.66 172.16 367.79 C 172.52 367.39 173.24 366.59 173.60 366.19 L 174.18 365.61 C 174.38 287.41 174.13 209.21 174.24 131.01 Z" />
</g>
<g id="#747575ff">
<path fill="#747575" opacity="1.00" d=" M 0.00 156.85 C 4.99 157.12 9.85 158.35 14.77 159.13 C 14.82 168.86 14.69 178.60 14.84 188.33 C 14.84 188.77 14.83 189.65 14.82 190.08 L 14.81 191.23 C 14.76 195.69 14.75 200.15 14.84 204.61 C 14.72 232.26 14.76 259.92 14.83 287.58 C 14.80 291.34 14.76 295.11 14.83 298.88 C 14.74 321.29 14.75 343.71 14.71 366.13 C 14.14 365.16 13.86 364.13 13.86 363.01 C 13.60 355.44 14.25 347.83 13.64 340.28 C 9.39 338.42 4.65 337.41 0.00 337.57 L 0.00 156.85 Z" />
</g>
<g id="#cb4335ff">
<path fill="#cb4335" opacity="1.00" d=" M 63.35 179.90 C 71.95 177.08 81.06 176.27 89.74 173.72 C 91.11 173.88 92.48 174.07 93.84 174.30 C 92.57 175.12 91.26 175.90 90.07 176.86 C 91.21 180.30 92.24 183.77 93.71 187.10 C 94.43 190.33 97.45 192.21 98.43 195.32 C 100.37 195.75 102.44 195.79 104.18 196.89 C 101.44 198.15 98.36 197.58 95.45 197.41 C 86.76 196.30 77.87 196.93 69.27 195.09 C 67.78 192.65 64.80 192.92 62.36 192.33 C 62.44 189.24 62.55 186.07 60.75 183.38 C 61.46 182.11 62.39 180.98 63.35 179.90 Z" />
</g>
<g id="#b53c2fff">
<path fill="#b53c2f" opacity="1.00" d=" M 14.82 190.08 C 31.03 186.86 47.14 183.12 63.35 179.90 C 62.39 180.98 61.46 182.11 60.75 183.38 C 62.55 186.07 62.44 189.24 62.36 192.33 C 64.80 192.92 67.78 192.65 69.27 195.09 C 51.11 193.97 32.93 192.86 14.81 191.23 L 14.82 190.08 Z" />
</g>
<g id="#c44033ff">
<path fill="#c44033" opacity="1.00" d=" M 14.84 204.61 C 16.10 207.90 16.89 211.34 17.39 214.82 C 22.48 241.91 28.19 268.87 33.21 295.97 L 32.25 295.70 C 26.49 292.88 20.73 290.06 14.83 287.58 C 14.76 259.92 14.72 232.26 14.84 204.61 Z" />
</g>
<g id="#a9382dff">
<path fill="#a9382d" opacity="1.00" d=" M 136.41 270.50 C 136.41 272.05 136.55 273.62 136.26 275.16 C 133.93 291.18 131.97 307.26 129.41 323.25 C 129.27 321.18 129.01 319.12 128.41 317.14 C 127.82 317.92 127.07 318.62 126.69 319.55 C 127.01 320.96 128.01 322.26 127.83 323.76 C 125.73 324.59 124.05 323.51 123.46 321.43 C 122.82 321.99 122.22 322.59 121.59 323.16 C 118.74 321.66 115.52 322.06 112.44 321.61 C 111.75 321.03 111.53 320.10 111.05 319.38 C 109.43 319.90 107.88 320.61 106.28 321.16 C 107.40 317.59 111.73 314.68 110.32 310.68 C 118.71 297.09 127.85 283.98 136.41 270.50 Z" />
</g>
<g id="#8c2e25ff">
<path fill="#8c2e25" opacity="1.00" d=" M 14.83 287.58 C 20.73 290.06 26.49 292.88 32.25 295.70 C 26.68 297.89 20.63 297.77 14.83 298.88 C 14.76 295.11 14.80 291.34 14.83 287.58 Z" />
</g>
<g id="#6e241cff">
<path fill="#6e241c" opacity="1.00" d=" M 14.83 298.88 C 20.63 297.77 26.68 297.89 32.25 295.70 L 33.21 295.97 C 33.18 296.66 33.12 298.04 33.10 298.73 C 31.63 304.42 31.34 310.32 30.40 316.11 C 28.21 332.77 25.73 349.39 23.68 366.07 C 20.69 366.11 17.70 366.22 14.71 366.13 C 14.75 343.71 14.74 321.29 14.83 298.88 Z" />
<path fill="#6e241c" opacity="1.00" d=" M 57.68 311.59 C 57.62 311.32 57.51 310.79 57.45 310.53 C 69.80 318.50 82.80 325.45 95.09 333.51 C 100.69 337.47 106.39 341.27 112.04 345.16 C 112.73 345.70 113.67 346.27 113.53 347.33 C 95.29 334.85 76.23 323.60 57.68 311.59 Z" />
</g>
<g id="#b53b2fff">
<path fill="#b53b2f" opacity="1.00" d=" M 33.21 295.97 C 41.15 301.04 49.86 304.92 57.45 310.53 C 57.51 310.79 57.62 311.32 57.68 311.59 C 76.23 323.60 95.29 334.85 113.53 347.33 C 122.87 354.38 133.60 359.38 143.22 366.05 C 116.19 366.17 89.17 366.07 62.14 366.07 C 60.21 359.28 56.80 353.07 54.51 346.42 C 47.00 330.69 41.49 314.04 33.10 298.73 C 33.12 298.04 33.18 296.66 33.21 295.97 Z" />
</g>
<g id="#a9372dff">
<path fill="#a9372d" opacity="1.00" d=" M 33.10 298.73 C 41.49 314.04 47.00 330.69 54.51 346.42 C 56.80 353.07 60.21 359.28 62.14 366.07 C 49.32 366.11 36.50 366.09 23.68 366.07 C 25.73 349.39 28.21 332.77 30.40 316.11 C 31.34 310.32 31.63 304.42 33.10 298.73 Z" />
</g>
<g id="#a13529ff">
<path fill="#a13529" opacity="1.00" d=" M 110.32 310.68 C 111.73 314.68 107.40 317.59 106.28 321.16 C 107.88 320.61 109.43 319.90 111.05 319.38 C 111.53 320.10 111.75 321.03 112.44 321.61 C 115.52 322.06 118.74 321.66 121.59 323.16 C 122.22 322.59 122.82 321.99 123.46 321.43 C 124.05 323.51 125.73 324.59 127.83 323.76 C 128.01 322.26 127.01 320.96 126.69 319.55 C 127.07 318.62 127.82 317.92 128.41 317.14 C 129.01 319.12 129.27 321.18 129.41 323.25 C 128.04 333.50 126.28 343.72 125.20 354.01 C 134.12 344.32 142.80 334.40 151.59 324.59 C 152.47 323.60 153.47 322.73 154.57 321.99 C 154.68 336.68 154.43 351.37 154.74 366.06 C 150.90 366.08 147.06 366.06 143.22 366.05 C 133.60 359.38 122.87 354.38 113.53 347.33 C 113.67 346.27 112.73 345.70 112.04 345.16 C 106.39 341.27 100.69 337.47 95.09 333.51 C 100.58 326.19 105.05 318.16 110.32 310.68 Z" />
</g>
<g id="#707070ff">
<path fill="#707070" opacity="1.00" d=" M 0.00 337.57 C 4.65 337.41 9.39 338.42 13.64 340.28 C 14.25 347.83 13.60 355.44 13.86 363.01 C 13.86 364.13 14.14 365.16 14.71 366.13 C 17.70 366.22 20.69 366.11 23.68 366.07 C 36.50 366.09 49.32 366.11 62.14 366.07 C 89.17 366.07 116.19 366.17 143.22 366.05 C 147.06 366.06 150.90 366.08 154.74 366.06 C 161.02 366.19 167.32 365.96 173.60 366.19 C 173.24 366.59 172.52 367.39 172.16 367.79 C 168.29 371.51 165.31 376.02 161.71 380.00 L 0.00 380.00 L 0.00 337.57 Z" />
</g>
<g id="#e8e8e8ff">
<path fill="#e8e8e8" opacity="1.00" d=" M 173.64 373.51 C 178.26 369.11 184.83 367.71 190.00 364.09 L 190.00 380.00 L 183.24 380.00 C 180.00 377.89 177.01 375.43 173.64 373.51 Z" />
</g>
<g id="#a4a4a4ff">
<path fill="#a4a4a4" opacity="1.00" d=" M 161.71 380.00 C 165.31 376.02 168.29 371.51 172.16 367.79 C 172.70 369.66 172.43 371.91 173.64 373.51 C 177.01 375.43 180.00 377.89 183.24 380.00 L 161.71 380.00 Z" />
</g>
</svg>
